<svg width="21" height="22" viewBox="0 0 21 22" fill="none" xmlns="http://www.w3.org/2000/svg">
<path d="M10.7296 14.1053C12.1471 14.1053 13.2746 12.9494 13.2746 11.5C13.2746 10.0506 12.1471 8.89478 10.7296 8.89478C9.31201 8.89478 8.18457 10.0506 8.18457 11.5C8.18457 12.9494 9.31201 14.1053 10.7296 14.1053Z" fill="#22262A"/>
<path d="M18.2095 9.92458C18.0096 8.92447 17.619 7.97453 17.06 7.12913C16.5108 6.29743 15.811 5.58111 14.9985 5.01887C14.1726 4.44686 13.2447 4.04702 12.2678 3.84216C11.7546 3.73563 11.2321 3.68325 10.7085 3.68584V1.94727L7.33639 4.55253L10.7085 7.15779V5.42269C11.1191 5.42095 11.5297 5.4609 11.9259 5.54427C12.6852 5.70354 13.4064 6.01426 14.0484 6.45871C14.6816 6.89574 15.2265 7.4536 15.6535 8.10177C16.3163 9.10499 16.6697 10.2888 16.6681 11.4999C16.6679 12.3126 16.5093 13.1172 16.2015 13.8663C16.0518 14.2272 15.8688 14.5727 15.6552 14.898C15.4406 15.2214 15.1969 15.5235 14.9273 15.8003C14.1061 16.6394 13.0636 17.2149 11.9276 17.4564C11.1375 17.6197 10.3236 17.6197 9.53358 17.4564C8.77394 17.297 8.05242 16.9859 7.4102 16.5411C6.77775 16.1044 6.23339 15.5472 5.80685 14.8998C5.14477 13.8955 4.79114 12.7115 4.79139 11.4999H3.09473C3.09563 13.0576 3.55019 14.5796 4.40031 15.8715C4.9499 16.7019 5.64894 17.4175 6.46007 17.9801C7.72037 18.8532 9.20791 19.3186 10.7297 19.3157C11.2466 19.3156 11.7621 19.2624 12.2686 19.1568C13.2448 18.9504 14.1722 18.5507 14.9985 17.9801C15.4043 17.7002 15.7824 17.3805 16.1277 17.0257C16.4734 16.6708 16.7858 16.2835 17.0608 15.8689C17.9131 14.5791 18.3673 13.057 18.3647 11.4999C18.3647 10.9708 18.3127 10.443 18.2095 9.92458Z" fill="#22262A"/>
</svg>
