<svg width="19" height="18" viewBox="0 0 19 18" fill="none" xmlns="http://www.w3.org/2000/svg">
<path fill-rule="evenodd" clip-rule="evenodd" d="M14.8882 12.6466C15.4043 12.6457 15.9042 12.4749 16.3025 12.1631C16.7009 11.8513 16.9731 11.4179 17.0728 10.9368L18.1919 5.62013C18.2568 5.31198 18.2489 4.99399 18.1689 4.68907C18.089 4.38415 17.9389 4.09987 17.7294 3.85665C17.52 3.61344 17.2565 3.41728 16.9577 3.28241C16.659 3.14754 16.3325 3.07727 16.0018 3.07661H4.85945V2.01328C4.85945 1.73127 4.74153 1.46082 4.53165 1.26141C4.32176 1.062 4.03712 0.949951 3.7403 0.949951H1.51206C1.21524 0.949951 0.930565 1.062 0.720683 1.26141C0.5108 1.46082 0.392908 1.73127 0.392908 2.01328C0.392908 2.2953 0.5108 2.56574 0.720683 2.76516C0.930565 2.96457 1.21524 3.07661 1.51206 3.07661H2.63122V13.7099C2.1881 13.708 1.75435 13.8312 1.38494 14.0637C1.01553 14.2962 0.727053 14.6277 0.556095 15.0161C0.385137 15.4045 0.339378 15.8324 0.424603 16.2456C0.509827 16.6587 0.722202 17.0386 1.03483 17.337C1.34746 17.6353 1.74627 17.8388 2.18073 17.9216C2.61519 18.0045 3.06578 17.963 3.47537 17.8023C3.88495 17.6416 4.23511 17.369 4.48151 17.0191C4.7279 16.6691 4.85945 16.2576 4.85945 15.8366H12.6588C12.6606 16.2552 12.7929 16.6638 13.0389 17.011C13.2849 17.3582 13.6337 17.6284 14.0413 17.7874C14.4488 17.9464 14.8967 17.9872 15.3286 17.9045C15.7604 17.8218 16.1568 17.6194 16.4677 17.3228C16.7786 17.0262 16.9901 16.6488 17.0754 16.2382C17.1607 15.8275 17.116 15.4021 16.947 15.0155C16.778 14.629 16.4923 14.2987 16.1258 14.0663C15.7594 13.8339 15.3288 13.7099 14.8882 13.7099H4.85945V12.6466H14.8882ZM16.0074 5.20328L14.8882 10.5199H4.85945V5.20328H16.0018H16.0074Z" fill="#33A0FF"/>
</svg>
