<svg width="19" height="16" viewBox="0 0 19 16" fill="none" xmlns="http://www.w3.org/2000/svg">
<path fill-rule="evenodd" clip-rule="evenodd" d="M13.0784 2.35018C13.7247 2.3512 14.3571 2.52949 14.8994 2.86361C15.4418 3.19774 15.8711 3.67351 16.1358 4.2338C16.4005 4.79408 16.4893 5.41504 16.3917 6.02213C16.294 6.62923 16.014 7.19662 15.5852 7.6562C14.9697 8.31547 9.72093 12.9835 9.72093 12.9835C9.72093 12.9835 4.46095 8.31546 3.84542 7.64556C3.30246 7.06583 3.0036 6.31621 3.00607 5.54018C3.00607 4.69414 3.35978 3.88273 3.98942 3.28449C4.61906 2.68625 5.47305 2.35018 6.3635 2.35018C7.25395 2.35018 8.10794 2.68625 8.73758 3.28449C9.36722 3.88273 9.72093 4.69414 9.72093 5.54018C9.72093 4.69414 10.0746 3.88273 10.7043 3.28449C11.3339 2.68625 12.1879 2.35018 13.0784 2.35018ZM13.0784 0.223519C11.8673 0.221436 10.6885 0.594763 9.72093 1.28685C8.61258 0.509082 7.24118 0.147187 5.86943 0.270507C4.49768 0.393828 3.22201 0.993718 2.28686 1.9552C1.35171 2.91668 0.822803 4.17218 0.801454 5.48119C0.780104 6.79019 1.26787 8.06062 2.17122 9.04917C2.80018 9.73395 6.93987 13.4173 8.19331 14.5296C8.60794 14.898 9.15436 15.1029 9.72202 15.1029C10.2897 15.1029 10.8362 14.898 11.2508 14.5296C12.4998 13.4184 16.6227 9.74457 17.2595 9.06085C17.9723 8.29453 18.4373 7.34917 18.5988 6.33807C18.7603 5.32697 18.6116 4.29307 18.1703 3.3603C17.7289 2.42753 17.0139 1.63547 16.1107 1.0791C15.2076 0.522738 14.1547 0.225693 13.0784 0.223519Z" fill="#33A0FF"/>
</svg>
