<svg width="31" height="33" viewBox="0 0 31 33" fill="none" xmlns="http://www.w3.org/2000/svg">
<rect x="0.459961" width="30.54" height="33" rx="15.27" fill="#F6F7F8"/>
<path d="M15.7305 19.1053C17.1481 19.1053 18.2755 17.9494 18.2755 16.5C18.2755 15.0506 17.1481 13.8948 15.7305 13.8948C14.313 13.8948 13.1855 15.0506 13.1855 16.5C13.1855 17.9494 14.313 19.1053 15.7305 19.1053Z" fill="#22262A"/>
<path d="M23.2095 14.9246C23.0096 13.9245 22.619 12.9745 22.06 12.1291C21.5108 11.2974 20.811 10.5811 19.9985 10.0189C19.1726 9.44686 18.2447 9.04702 17.2678 8.84216C16.7546 8.73563 16.2321 8.68325 15.7085 8.68584V6.94727L12.3364 9.55253L15.7085 12.1578V10.4227C16.1191 10.4209 16.5297 10.4609 16.9259 10.5443C17.6852 10.7035 18.4064 11.0143 19.0484 11.4587C19.6816 11.8957 20.2265 12.4536 20.6535 13.1018C21.3163 14.105 21.6697 15.2888 21.6681 16.4999C21.6679 17.3126 21.5093 18.1172 21.2015 18.8663C21.0518 19.2272 20.8688 19.5727 20.6552 19.898C20.4406 20.2214 20.1969 20.5235 19.9273 20.8003C19.1061 21.6394 18.0636 22.2149 16.9276 22.4564C16.1375 22.6197 15.3236 22.6197 14.5336 22.4564C13.7739 22.297 13.0524 21.9859 12.4102 21.5411C11.7778 21.1044 11.2334 20.5472 10.8068 19.8998C10.1448 18.8955 9.79114 17.7115 9.79139 16.4999H8.09473C8.09563 18.0576 8.55019 19.5796 9.40031 20.8715C9.9499 21.7019 10.6489 22.4175 11.4601 22.9801C12.7204 23.8532 14.2079 24.3186 15.7297 24.3157C16.2466 24.3156 16.7621 24.2624 17.2686 24.1568C18.2448 23.9504 19.1722 23.5507 19.9985 22.9801C20.4043 22.7002 20.7824 22.3805 21.1277 22.0257C21.4734 21.6708 21.7858 21.2835 22.0608 20.8689C22.9131 19.5791 23.3673 18.0571 23.3647 16.4999C23.3647 15.9708 23.3127 15.443 23.2095 14.9246V14.9246Z" fill="#22262A"/>
</svg>
