<svg width="21" height="21" viewBox="0 0 21 21" fill="none" xmlns="http://www.w3.org/2000/svg">
<path fill-rule="evenodd" clip-rule="evenodd" d="M20.5514 18.6881L14.2434 12.351C15.3751 10.7449 15.8622 8.77226 15.6083 6.82393C15.3543 4.87561 14.3777 3.09378 12.872 1.83144C11.3664 0.569107 9.44149 -0.0816217 7.47873 0.00819985C5.51598 0.0980214 3.65858 0.92179 2.27451 2.31637C0.890443 3.71094 0.0806863 5.57454 0.00571241 7.53792C-0.0692615 9.50131 0.596009 11.4213 1.8697 12.9173C3.14338 14.4134 4.93256 15.3764 6.88276 15.6157C8.83295 15.8549 10.8019 15.3529 12.3994 14.2091L18.7074 20.5471C18.8288 20.6711 18.9736 20.7697 19.1334 20.8372C19.2932 20.9047 19.4648 20.9397 19.6383 20.9403C19.8118 20.9409 19.9837 20.907 20.1439 20.8406C20.3042 20.7742 20.4497 20.6766 20.5719 20.5534C20.6941 20.4303 20.7906 20.2841 20.8558 20.1233C20.921 19.9625 20.9536 19.7904 20.9517 19.617C20.9498 19.4435 20.9134 19.2721 20.8447 19.1128C20.776 18.9535 20.6763 18.8085 20.5514 18.6881ZM7.8624 13.046C6.82145 13.0518 5.80222 12.7484 4.9339 12.1742C4.06559 11.6001 3.38727 10.7811 2.98493 9.821C2.58259 8.86093 2.47434 7.80299 2.67389 6.78133C2.87345 5.75967 3.37183 4.82028 4.10587 4.08217C4.83991 3.34407 5.77655 2.84048 6.79709 2.63528C7.81764 2.43007 8.87613 2.5325 9.83842 2.92953C10.8007 3.32655 11.6234 4.00031 12.2024 4.86544C12.7813 5.73057 13.0904 6.74805 13.0904 7.78902C13.0904 9.17826 12.5405 10.5111 11.5609 11.4961C10.5813 12.4812 9.25161 13.0384 7.8624 13.046Z" fill="#22262A"/>
</svg>
