<svg width="22" height="19" viewBox="0 0 22 19" fill="none" xmlns="http://www.w3.org/2000/svg">
<path d="M17.3362 12.6213H5.66849C5.21093 12.6213 4.86776 12.3332 4.86776 12.045L3.49509 3.97725C3.3807 3.59307 3.72387 3.30493 4.06704 3.30493H19.5096C20.6535 3.30493 21.4542 4.36143 21.111 5.32188L18.7088 11.7569C18.5945 12.2371 18.0225 12.6213 17.3362 12.6213Z" stroke="black" stroke-width="0.75" stroke-miterlimit="10" stroke-linecap="round" stroke-linejoin="round"/>
<path d="M17.7941 15.2147H6.46961C5.66889 15.2147 4.86816 14.6384 4.86816 13.87C4.86816 13.1977 5.5545 12.5254 6.46961 12.5254H16.1927" stroke="black" stroke-width="0.75" stroke-miterlimit="10" stroke-linecap="round" stroke-linejoin="round"/>
<path d="M7.61362 18C8.24537 18 8.75751 17.57 8.75751 17.0396C8.75751 16.5091 8.24537 16.0791 7.61362 16.0791C6.98186 16.0791 6.46973 16.5091 6.46973 17.0396C6.46973 17.57 6.98186 18 7.61362 18Z" stroke="black" stroke-width="0.75" stroke-miterlimit="10" stroke-linecap="round" stroke-linejoin="round"/>
<path d="M15.6205 18C16.2522 18 16.7643 17.57 16.7643 17.0396C16.7643 16.5091 16.2522 16.0791 15.6205 16.0791C14.9887 16.0791 14.4766 16.5091 14.4766 17.0396C14.4766 17.57 14.9887 18 15.6205 18Z" stroke="black" stroke-width="0.75" stroke-miterlimit="10" stroke-linecap="round" stroke-linejoin="round"/>
<path d="M0.635742 1H1.77963C2.46597 1 3.03791 1.38418 3.1523 1.96045L4.98253 12.1412" stroke="black" stroke-width="0.75" stroke-miterlimit="10" stroke-linecap="round" stroke-linejoin="round"/>
</svg>
